<svg width="1170" height="424" viewBox="0 0 1170 424" fill="none" xmlns="http://www.w3.org/2000/svg">
<path d="M167.712 172.099C167.74 180.074 166.119 187.969 162.949 195.287C156.822 209.588 145.396 220.96 131.066 227.02C123.837 230.135 116.042 231.719 108.171 231.675L0.727539 231.413L1.26437 0.97998L105.787 1.25051C113.787 1.26769 121.032 3.01539 127.522 6.49359C133.869 9.85982 139.485 14.4515 144.044 20.0028C148.624 25.6204 152.18 31.9999 154.549 38.8495C156.983 45.6764 158.23 52.8701 158.233 60.1181C158.208 71.8037 155.262 82.5074 149.395 92.2292C143.737 101.761 135.185 109.24 124.984 113.579C137.56 117.321 148.55 125.104 156.254 135.724C160.018 140.905 162.91 146.667 164.817 152.78C166.767 159.033 167.743 165.549 167.712 172.099ZM12.6022 11.406L12.3703 110.071L101.634 110.277C108.343 110.294 114.46 108.903 119.985 106.103C125.442 103.358 130.305 99.5638 134.295 94.9388C138.32 90.2771 141.516 84.9598 143.743 79.2181C146.015 73.4318 147.181 67.2704 147.179 61.0542C147.213 54.691 146.129 48.3714 143.975 42.3835C141.949 36.6531 138.941 31.3191 135.085 26.6199C131.341 22.0966 126.711 18.3865 121.48 15.7173C116.18 13.0034 110.287 11.6379 103.799 11.6207L12.6022 11.406ZM156.674 171.099C156.69 164.604 155.494 158.163 153.149 152.106C150.91 146.154 147.626 140.649 143.451 135.853C139.355 131.202 134.396 127.389 128.849 124.624C123.211 121.797 116.986 120.336 110.679 120.36L12.3317 120.132L12.0955 221.069L108.175 221.292C114.69 221.352 121.132 219.924 127.011 217.118C132.83 214.348 138.075 210.506 142.472 205.795C146.901 201.069 150.435 195.578 152.899 189.589C155.362 183.734 156.645 177.45 156.674 171.099Z" fill="#102969"/>
<path d="M245.144 231.997L245.685 1.56396L340.467 1.78727C349.65 1.73064 358.713 3.8652 366.905 8.01368C374.838 12.0057 381.935 17.4756 387.816 24.1294C393.665 30.7805 398.267 38.4319 401.4 46.7162C404.575 54.8963 406.204 63.5945 406.205 72.3691C406.228 80.9724 404.839 89.5211 402.091 97.6741C399.495 105.423 395.572 112.662 390.495 119.067C385.54 125.304 379.474 130.571 372.604 134.603C365.555 138.739 357.681 141.269 349.542 142.015L407.09 232.375L394.103 232.345L337.182 143.286L256.683 143.097L256.477 232.023L245.144 231.997ZM256.739 132.71L342.108 132.911C350.11 132.928 357.411 131.211 364.01 127.758C370.474 124.435 376.177 119.808 380.76 114.168C385.419 108.366 389.006 101.78 391.354 94.7198C393.834 87.5157 395.114 79.9534 395.142 72.3347C395.175 64.6058 393.707 56.9439 390.822 49.7736C388.053 42.7339 384.057 36.2409 379.02 30.5963C374.077 25.0882 368.142 20.5593 361.524 17.246C354.885 13.8933 347.549 12.153 340.111 12.1661L257.018 11.9857L256.739 132.71Z" fill="#102969"/>
<path d="M555.672 2.28955L565.412 2.31102L663.871 232.976L651.846 232.95L617.965 153.355L502.41 153.085L468.143 232.525L455.809 232.495L555.672 2.28955ZM614.418 143.608L560.508 16.5803L505.678 143.354L614.418 143.608Z" fill="#102969"/>
<path d="M896.048 195.871C872.616 221.999 845.752 235.024 815.455 234.947C799.659 234.91 785.115 231.475 771.821 224.641C758.789 217.998 747.178 208.876 737.64 197.786C728.096 186.652 720.548 173.952 715.33 160.247C709.953 146.28 707.281 132.155 707.316 117.873C707.316 102.92 709.989 88.0868 715.209 74.0737C720.206 60.4117 727.661 47.7794 737.206 36.8011C746.57 26.0629 757.951 17.2682 770.705 10.9164C783.589 4.45521 797.715 1.2418 813.084 1.27615C824.771 1.30764 835.264 2.57582 844.564 5.0807C853.863 7.58558 862.077 11.0681 869.206 15.5282C876.168 19.8315 882.401 25.2132 887.673 31.4721C892.879 37.6979 897.33 44.517 900.935 51.7874L891.487 56.6354C883.087 40.8246 872.185 29.4396 858.783 22.4803C845.381 15.521 830.031 12.0228 812.732 11.9856C798.233 11.9512 785.188 15.0043 773.595 21.1449C762.213 27.1158 752.148 35.3156 744.001 45.2561C735.78 55.3367 729.432 66.8085 725.259 79.1278C720.928 91.5954 718.703 104.697 718.675 117.895C718.588 131.675 721.145 145.344 726.208 158.16C731.038 170.569 738.047 182.015 746.904 191.959C755.613 201.693 766.121 209.653 777.851 215.4C789.754 221.274 802.859 224.305 816.133 224.255C830.537 224.31 844.742 220.892 857.542 214.288C870.647 207.615 883.492 197.043 896.078 182.572L896.198 132.593L842.945 132.469L842.971 122.73L906.587 122.88L906.329 233.552L895.945 233.526L896.048 195.871Z" fill="#102969"/>
<path d="M1061.39 3.4707L1071.13 3.49647L1169.59 234.157L1157.57 234.132L1123.68 154.549L1008.13 154.279L973.862 233.719L961.523 233.689L1061.39 3.4707ZM1120.14 144.793L1066.23 17.7657L1011.4 144.536L1120.14 144.793Z" fill="#102969"/>
<path d="M0.0107422 346.632C0.0557966 337.751 1.65461 328.948 4.73484 320.618C7.8066 312.123 12.393 304.255 18.2715 297.396C24.3288 290.386 31.7543 284.687 40.0926 280.649C48.7477 276.355 58.6068 274.226 69.6697 274.264C82.8056 274.292 93.9301 277.29 103.043 283.255C112.157 289.221 118.921 296.846 123.336 306.13L119.389 307.35C116.749 302.355 113.368 297.789 109.361 293.806C105.702 290.206 101.512 287.189 96.9364 284.861C92.5343 282.638 87.8672 280.983 83.0475 279.936C78.3809 278.912 73.6186 278.386 68.8409 278.369C58.6082 278.343 49.4764 280.335 41.4454 284.346C33.6456 288.177 26.7145 293.567 21.0802 300.183C15.5283 306.73 11.2542 314.26 8.47975 322.383C5.67196 330.388 4.22046 338.806 4.18512 347.289C4.13052 356.413 5.83508 365.463 9.20555 373.942C12.4364 382.2 17.1264 389.81 23.0515 396.409C28.8541 402.866 35.8549 408.137 43.6657 411.928C51.6092 415.773 60.3291 417.744 69.1544 417.69C74.1889 417.679 79.2043 417.071 84.0954 415.878C89.2474 414.65 94.2323 412.804 98.942 410.382C103.812 407.872 108.296 404.675 112.255 400.888C116.453 396.858 119.999 392.201 122.764 387.082L126.703 388.113C124.225 393.541 120.767 398.465 116.503 402.64C112.247 406.835 107.421 410.41 102.167 413.259C96.8988 416.116 91.2797 418.273 85.4525 419.674C79.8516 421.061 74.1043 421.77 68.3341 421.787C58.3763 421.761 49.1843 419.554 40.7583 415.165C32.4967 410.903 25.1471 405.068 19.1219 397.989C13.0763 390.867 8.32215 382.744 5.07411 373.985C1.73017 365.253 0.0140729 355.982 0.0107422 346.632Z" fill="#4591FF"/>
<path d="M224.294 421.946C214.061 421.921 204.766 419.782 196.409 415.531C188.209 411.399 180.867 405.75 174.772 398.883C168.653 391.958 163.887 383.947 160.72 375.265C157.451 366.548 155.785 357.312 155.803 348.002C155.797 338.462 157.615 329.009 161.158 320.151C164.57 311.498 169.507 303.528 175.734 296.619C181.873 289.828 189.287 284.31 197.555 280.379C206.011 276.353 215.273 274.307 224.637 274.397C234.733 274.423 243.993 276.597 252.419 280.92C260.672 285.103 268.024 290.863 274.06 297.873C280.076 304.884 284.797 312.909 288.005 321.572C294.712 339.255 294.559 358.807 287.575 376.382C284.179 385.011 279.24 392.95 272.999 399.81C266.864 406.533 259.492 412.012 251.286 415.947C242.867 419.989 233.632 422.041 224.294 421.946ZM159.952 348.032C159.916 356.967 161.549 365.83 164.766 374.166C167.853 382.347 172.36 389.919 178.079 396.534C183.721 403.029 190.625 408.309 198.371 412.053C206.242 415.895 214.88 417.827 224.285 417.85C233.828 417.87 242.58 415.874 250.543 411.864C258.319 407.997 265.243 402.614 270.908 396.032C276.56 389.427 281.002 381.877 284.028 373.728C288.696 361.336 289.895 347.906 287.494 334.883C285.094 321.861 279.185 309.74 270.405 299.827C264.679 293.38 257.752 288.11 250.01 284.312C242.105 280.445 233.412 278.461 224.612 278.515C215.069 278.495 206.318 280.489 198.358 284.497C190.561 288.38 183.605 293.76 177.886 300.329C166.449 313.608 160.089 330.509 159.934 348.032H159.952Z" fill="#4591FF"/>
<path d="M335.898 421.181L336.238 275.702L396.187 275.84C401.938 275.811 407.616 277.122 412.772 279.67C417.776 282.131 422.244 285.554 425.923 289.744C429.587 293.933 432.494 298.728 434.512 303.914C436.545 309.035 437.587 314.495 437.583 320.004C437.586 325.513 436.662 330.982 434.851 336.184C433.123 341.215 430.505 345.894 427.121 349.998C423.807 354.008 419.749 357.339 415.169 359.806C410.458 362.344 405.255 363.835 399.914 364.177L437.119 421.43H432.141L394.932 364.173L340.172 364.044L340.038 421.211L335.898 421.181ZM340.193 359.926L397.445 360.059C402.976 360.059 407.958 358.914 412.39 356.624C416.736 354.383 420.587 351.292 423.715 347.534C426.864 343.738 429.299 339.404 430.904 334.741C432.569 330.003 433.422 325.018 433.425 319.996C433.449 314.868 432.475 309.786 430.556 305.031C428.691 300.346 425.997 296.036 422.603 292.307C419.222 288.615 415.184 285.583 410.694 283.367C406.19 281.109 401.221 279.933 396.182 279.932L340.382 279.799L340.193 359.926Z" fill="#4591FF"/>
<path d="M481.727 421.525L482.066 276.042L542.015 276.183C547.767 276.153 553.448 277.464 558.605 280.014C563.607 282.471 568.075 285.893 571.751 290.083C575.416 294.271 578.323 299.067 580.34 304.254C582.375 309.375 583.418 314.837 583.415 320.348C583.416 325.856 582.491 331.326 580.679 336.528C578.951 341.559 576.333 346.238 572.949 350.342C569.636 354.352 565.577 357.681 560.997 360.145C556.287 362.686 551.083 364.177 545.742 364.517L582.947 421.774H577.969L540.765 364.521L486 364.392L485.867 421.559L481.727 421.525ZM486.021 360.266L543.277 360.403C548.803 360.403 553.783 359.258 558.218 356.968C562.566 354.727 566.418 351.636 569.548 347.877C572.693 344.082 575.127 339.75 576.733 335.089C578.397 330.349 579.25 325.363 579.258 320.339C579.281 315.212 578.307 310.129 576.389 305.374C574.525 300.69 571.829 296.381 568.431 292.655C565.052 288.959 561.013 285.926 556.522 283.711C552.018 281.453 547.049 280.276 542.01 280.275L486.21 280.147L486.021 360.266Z" fill="#4591FF"/>
<path d="M724.232 417.991V422.092L627.564 421.864L627.904 276.385L722.704 276.604V280.705L632.052 280.49L631.902 345.447L711.353 345.632V349.728L631.902 349.544L631.743 417.776L724.232 417.991Z" fill="#4591FF"/>
<path d="M868.721 281.044L812.298 280.911L811.967 422.294H807.819L808.149 280.911L751.727 280.778V276.682L868.721 276.956V281.044Z" fill="#4591FF"/>
<path d="M956.55 423.659C946.312 423.634 937.016 421.487 928.661 417.218C920.467 413.095 913.13 407.456 907.038 400.6C900.919 393.675 896.154 385.664 892.99 376.983C889.719 368.266 888.053 359.03 888.072 349.72C888.065 340.178 889.883 330.723 893.428 321.864C896.84 313.213 901.777 305.244 908.004 298.337C914.141 291.544 921.556 286.026 929.825 282.096C938.28 278.07 947.542 276.024 956.907 276.115C966.999 276.14 976.26 278.313 984.689 282.633C992.938 286.82 1000.29 292.581 1006.33 299.59C1012.34 306.6 1017.07 314.625 1020.27 323.289C1026.98 340.973 1026.82 360.523 1019.84 378.099C1016.45 386.728 1011.51 394.667 1005.27 401.528C999.132 408.25 991.758 413.729 983.551 417.665C975.129 421.707 965.891 423.758 956.55 423.659ZM892.208 349.741C892.172 358.677 893.805 367.542 897.022 375.879C900.11 384.059 904.617 391.629 910.336 398.243C915.979 404.737 922.882 410.017 930.628 413.762C938.504 417.603 947.144 419.536 956.546 419.559C966.089 419.584 974.841 417.59 982.803 413.577C990.579 409.709 997.503 404.326 1003.17 397.745C1008.82 391.14 1013.26 383.59 1016.29 375.441C1020.96 363.049 1022.16 349.619 1019.75 336.597C1017.35 323.574 1011.45 311.453 1002.67 301.54C996.939 295.093 990.012 289.822 982.271 286.021C974.365 282.159 965.672 280.176 956.873 280.228C947.33 280.203 938.577 282.197 930.615 286.21C922.819 290.093 915.864 295.473 910.147 302.042C898.711 315.32 892.351 332.219 892.195 349.741H892.208Z" fill="#4591FF"/>
<path d="M1068.15 422.895L1068.49 277.412L1128.44 277.553C1134.19 277.523 1139.87 278.834 1145.03 281.384C1150.03 283.843 1154.5 287.265 1158.17 291.453C1161.84 295.641 1164.75 300.437 1166.76 305.624C1168.8 310.746 1169.84 316.207 1169.84 321.718C1169.84 327.227 1168.92 332.696 1167.1 337.898C1165.38 342.927 1162.77 347.607 1159.4 351.712C1156.08 355.721 1152.03 359.051 1147.45 361.52C1142.73 364.056 1137.53 365.547 1132.19 365.891L1169.39 423.144H1164.41L1127.21 365.891L1072.45 365.762L1072.31 422.929L1068.15 422.895ZM1072.45 361.64L1129.7 361.773C1135.23 361.773 1140.21 360.628 1144.64 358.338C1148.99 356.095 1152.84 353.002 1155.97 349.243C1159.12 345.449 1161.55 341.117 1163.16 336.455C1164.82 331.717 1165.67 326.732 1165.68 321.709C1165.71 316.582 1164.73 311.499 1162.81 306.745C1160.95 302.059 1158.25 297.749 1154.85 294.021C1151.48 290.326 1147.44 287.294 1142.95 285.081C1138.45 282.819 1133.47 281.643 1128.43 281.646L1072.63 281.512L1072.45 361.64Z" fill="#4591FF"/>
</svg>
