<svg xmlns="http://www.w3.org/2000/svg" viewBox="0 0 2738.18 995.81"><defs><style>.cls-1{fill:#102969;stroke:#102969;stroke-width:13px;}.cls-1,.cls-2{stroke-miterlimit:10;}.cls-2{fill:#4591ff;stroke:#4591ff;stroke-width:10px;}</style></defs><g id="Camada_2" data-name="Camada 2"><g id="Camada_1-2" data-name="Camada 1"><path class="cls-1" d="M395.46,405a134.72,134.72,0,0,1-11.08,54,140.16,140.16,0,0,1-74.25,73.89,132.76,132.76,0,0,1-53.31,10.84L6.65,543.14,7.9,6.52l243.38.56q27.95.07,50.61,12.21a126.74,126.74,0,0,1,38.47,31.46,144,144,0,0,1,24.46,43.9,147.63,147.63,0,0,1,8.58,49.52Q373.29,185,352.82,219A121.31,121.31,0,0,1,296,268.7a139,139,0,0,1,72.82,51.57A136.9,136.9,0,0,1,388.77,360,148.37,148.37,0,0,1,395.46,405ZM34.3,30.76l-.54,229.77,207.85.49q23.42,0,42.73-9.73a108.3,108.3,0,0,0,33.32-26,125.4,125.4,0,0,0,22-36.6,115.76,115.76,0,0,0,8-42.31,126.26,126.26,0,0,0-7.45-43.48,122,122,0,0,0-20.7-36.7,100.29,100.29,0,0,0-31.69-25.4q-18.5-9.48-41.17-9.54ZM369.77,402.65a121.68,121.68,0,0,0-8.21-44.23A124.24,124.24,0,0,0,339,320.58a111.62,111.62,0,0,0-34-26.16,93.39,93.39,0,0,0-42.3-9.92l-229-.54L33.16,519l223.72.52a99.7,99.7,0,0,0,43.86-9.72,119.31,119.31,0,0,0,36-26.37A124.11,124.11,0,0,0,361,445.72,112.49,112.49,0,0,0,369.77,402.65Z"/><path class="cls-1" d="M575.77,544.47,577,7.85l220.69.51a134.43,134.43,0,0,1,61.57,14.51A162.68,162.68,0,0,1,908,60.39,171.35,171.35,0,0,1,939.57,113a164.9,164.9,0,0,1,11.2,59.73,183.22,183.22,0,0,1-9.58,58.93,164.22,164.22,0,0,1-27,49.83,150.86,150.86,0,0,1-41.66,36.18,129.49,129.49,0,0,1-53.7,17.25l134,210.44-30.23-.07L790.15,337.88l-187.44-.44-.49,207.1Zm27-231.21,198.78.46q28,.07,51.05-12a122.55,122.55,0,0,0,39-31.65,146,146,0,0,0,24.67-45.3,161.75,161.75,0,0,0,8.81-52.13A139,139,0,0,0,915,120.12a149.42,149.42,0,0,0-27.48-44.66,137.17,137.17,0,0,0-40.74-31.08,110,110,0,0,0-49.86-11.83l-193.49-.46Z"/><path class="cls-1" d="M1298.83,9.53l22.67.06,229.27,537.16-28-.06-78.93-185.36-269.07-.63-79.79,185-28.72-.07Zm136.79,329.11L1310.09,42.82,1182.42,338Z"/><path class="cls-1" d="M2091.39,460.34q-81.84,91.28-187.66,91-55.17-.14-101.6-24.05a261.56,261.56,0,0,1-79.59-62.54,296.17,296.17,0,0,1-52-87.42q-18.79-48.8-18.66-98.68a292,292,0,0,1,18.38-102,277.45,277.45,0,0,1,51.22-86.8,253.29,253.29,0,0,1,78-60.28q45-22.58,98.69-22.44,40.82.09,73.3,8.86t57.38,24.32a180.16,180.16,0,0,1,43,37.13,240.1,240.1,0,0,1,30.88,47.32l-22,11.28q-29.36-55.23-76.15-79.54T1897.39,32.09q-50.64-.11-91.13,21.33a223.11,223.11,0,0,0-68.91,56.15,253.66,253.66,0,0,0-43.64,78.88,277.07,277.07,0,0,0-15.33,90.29,250.84,250.84,0,0,0,17.54,93.76,260.33,260.33,0,0,0,48.19,78.72,236.11,236.11,0,0,0,72.05,54.58,199.5,199.5,0,0,0,89.14,20.62,208.36,208.36,0,0,0,96.42-23.21q45.78-23.31,89.74-73.85l.27-116.4-124-.29,0-22.68,148.14.35-.6,257.73-24.19-.05Z"/><path class="cls-1" d="M2476.39,12.29l22.67.05,229.27,537.17-28-.07-78.93-185.36-269.07-.63-79.8,185-28.72-.06Zm136.79,329.1L2487.65,45.57,2360,340.8Z"/><path class="cls-2" d="M5,811.43a177.22,177.22,0,0,1,11-60.57,173.93,173.93,0,0,1,31.52-54.09,158.55,158.55,0,0,1,50.81-39q30.21-15,68.87-14.87,45.87.11,77.71,20.94t47.22,53.32L283,720a130.25,130.25,0,0,0-23.35-31.55,117,117,0,0,0-28.94-20.83,135.36,135.36,0,0,0-32.33-11.52,157.68,157.68,0,0,0-33.08-3.66q-35.75-.09-63.79,13.93A148,148,0,0,0,54,703.23a160.11,160.11,0,0,0-29.35,51.7,177.75,177.75,0,0,0-10,58A165.37,165.37,0,0,0,26.35,875a172,172,0,0,0,32.24,52.32,156,156,0,0,0,48,36.14,134.31,134.31,0,0,0,59.38,13.5,148.7,148.7,0,0,0,34.79-4.21,153.47,153.47,0,0,0,34.57-12.8,132.67,132.67,0,0,0,31-22.12,130.26,130.26,0,0,0,24.47-32.15l9.17,2.4a113.2,113.2,0,0,1-23.75,33.83,148.71,148.71,0,0,1-33.38,24.74,160.25,160.25,0,0,1-38.92,14.94A168.34,168.34,0,0,1,164,986.45q-34.78-.08-64.21-15.42a166.26,166.26,0,0,1-50.38-40,186.73,186.73,0,0,1-32.71-55.91A178.32,178.32,0,0,1,5,811.43Z"/><path class="cls-2" d="M527.22,986.82q-35.75-.08-64.93-14.94a169,169,0,0,1-50.39-38.77,172.36,172.36,0,0,1-32.71-55,179.91,179.91,0,0,1-11.45-63.49,174.39,174.39,0,0,1,12.47-64.87A181,181,0,0,1,414.15,695,162.4,162.4,0,0,1,465,657.19,143.19,143.19,0,0,1,528,643.26q35.25.07,64.69,15.18a165,165,0,0,1,50.39,39.49,181.6,181.6,0,0,1,32.47,55.18,176.36,176.36,0,0,1-1,127.65,178,178,0,0,1-33.94,54.55A164.89,164.89,0,0,1,590,972.89,141.66,141.66,0,0,1,527.22,986.82ZM377.4,814.69a167.18,167.18,0,0,0,11.21,60.86,173.15,173.15,0,0,0,31,52.09,147.94,147.94,0,0,0,47.26,36.14q27.5,13.43,60.34,13.5,33.33.08,61.14-13.93a151.91,151.91,0,0,0,47.42-36.87,172,172,0,0,0,30.55-52,169.45,169.45,0,0,0-31.72-172.09,154.44,154.44,0,0,0-47.49-36.14A132.92,132.92,0,0,0,528,652.8q-33.33-.07-61.14,13.94A154.61,154.61,0,0,0,419.2,703.6a172.62,172.62,0,0,0-41.8,111.09Z"/><path class="cls-2" d="M787.08,985.05l.8-338.8,139.59.33a86.08,86.08,0,0,1,38.62,8.92A98.55,98.55,0,0,1,996.71,679a111.6,111.6,0,0,1,20,33,101.16,101.16,0,0,1,7.16,37.47,114.51,114.51,0,0,1-6.37,37.69,103.32,103.32,0,0,1-17.94,32.17,93.79,93.79,0,0,1-27.83,22.83,86.44,86.44,0,0,1-35.53,10.18L1022.8,985.6l-11.6,0L924.57,852.24l-127.51-.3-.32,133.13Zm10-142.66,133.31.31q19.32,0,34.8-8a85,85,0,0,0,26.37-21.17,94.91,94.91,0,0,0,16.73-29.78,103.9,103.9,0,0,0,5.88-34.35,92,92,0,0,0-6.68-34.85A97.38,97.38,0,0,0,989,684.9a93.83,93.83,0,0,0-27.72-20.83,75.49,75.49,0,0,0-33.8-8l-129.93-.3Z"/><path class="cls-2" d="M1126.65,985.84l.79-338.79,139.59.32a86.08,86.08,0,0,1,38.62,8.92,98.59,98.59,0,0,1,30.62,23.45,111.34,111.34,0,0,1,20,33,101.31,101.31,0,0,1,7.15,37.47,114.4,114.4,0,0,1-6.36,37.68,103.43,103.43,0,0,1-18,32.17,93.82,93.82,0,0,1-27.83,22.84,86.65,86.65,0,0,1-35.52,10.18l86.63,133.33-11.59,0L1264.13,853l-127.51-.3-.31,133.13Zm10-142.65,133.32.31q19.3,0,34.79-8a84.92,84.92,0,0,0,26.37-21.18,95,95,0,0,0,16.74-29.78,104.1,104.1,0,0,0,5.88-34.34,92.17,92.17,0,0,0-6.68-34.85,97.74,97.74,0,0,0-18.53-29.63,93.67,93.67,0,0,0-27.73-20.82,75.15,75.15,0,0,0-33.79-8l-129.94-.31Z"/><path class="cls-2" d="M1691.32,977.62l0,9.54-225.09-.53.79-338.79,220.74.52,0,9.54-211.08-.49-.36,151.26,185,.43,0,9.54-185-.43-.37,158.9Z"/><path class="cls-2" d="M2027.76,658.69l-131.38-.3-.77,329.25-9.66,0,.77-329.25-131.39-.3,0-9.55,272.42.64Z"/><path class="cls-2" d="M2232.27,990.81q-35.76-.09-64.94-14.94A169.27,169.27,0,0,1,2117,937.1a172.15,172.15,0,0,1-32.72-55,179.86,179.86,0,0,1-11.44-63.49,174.17,174.17,0,0,1,12.47-64.86A181,181,0,0,1,2119.2,699a162.54,162.54,0,0,1,50.8-37.82,143.51,143.51,0,0,1,63.07-13.93q35.25.09,64.69,15.19a164.93,164.93,0,0,1,50.38,39.48,181.6,181.6,0,0,1,32.48,55.19,176.41,176.41,0,0,1-1,127.64,177.87,177.87,0,0,1-33.93,54.56,165.17,165.17,0,0,1-50.57,37.58A141.83,141.83,0,0,1,2232.27,990.81ZM2082.45,818.68a167,167,0,0,0,11.21,60.86,173.06,173.06,0,0,0,31,52.09,148,148,0,0,0,47.25,36.14q27.51,13.43,60.35,13.5,33.33.08,61.13-13.94a151.55,151.55,0,0,0,47.43-36.87,172.13,172.13,0,0,0,30.55-51.94,169.48,169.48,0,0,0-31.72-172.1,154.6,154.6,0,0,0-47.5-36.13,132.71,132.71,0,0,0-59.13-13.5q-33.33-.07-61.14,13.93a154.53,154.53,0,0,0-47.66,36.87,172.42,172.42,0,0,0-41.8,111.09Z"/><path class="cls-2" d="M2492.13,989l.79-338.79,139.6.32a86.25,86.25,0,0,1,38.62,8.92,98.69,98.69,0,0,1,30.61,23.46,111.16,111.16,0,0,1,20,33,101.32,101.32,0,0,1,7.16,37.47,114.41,114.41,0,0,1-6.37,37.68,103.12,103.12,0,0,1-18,32.17,93.78,93.78,0,0,1-27.82,22.84,86.59,86.59,0,0,1-35.53,10.18l86.63,133.33-11.59,0-86.63-133.34-127.52-.3-.31,133.13Zm10-142.65,133.32.31q19.3,0,34.79-8a85,85,0,0,0,26.38-21.17,95.36,95.36,0,0,0,16.73-29.79,104.1,104.1,0,0,0,5.88-34.34,92,92,0,0,0-6.68-34.85A97.55,97.55,0,0,0,2694,688.88a93.8,93.8,0,0,0-27.72-20.82,75.49,75.49,0,0,0-33.8-7.95l-129.93-.31Z"/></g></g></svg>